<mxfile host="app.diagrams.net" modified="2023-09-16T07:20:27.899Z" agent="Mozilla/5.0 (Macintosh; Intel Mac OS X 10_15_7) AppleWebKit/537.36 (KHTML, like Gecko) Chrome/116.0.0.0 Safari/537.36" etag="QC_iqFkaCfXdxRjqTeGs" version="21.7.5" type="github">
  <diagram name="Страница — 1" id="jtLSriIxMIc0uCYnqBx7">
    <mxGraphModel dx="2406" dy="862" grid="1" gridSize="10" guides="1" tooltips="1" connect="1" arrows="1" fold="1" page="1" pageScale="1" pageWidth="1100" pageHeight="850" math="0" shadow="0">
      <root>
        <mxCell id="0" />
        <mxCell id="1" parent="0" />
        <mxCell id="o6OlLVgvbYjxNVcpemtw-1" value="" style="verticalLabelPosition=bottom;sketch=0;aspect=fixed;html=1;verticalAlign=top;strokeColor=none;align=center;outlineConnect=0;shape=mxgraph.citrix.database;" vertex="1" parent="1">
          <mxGeometry x="380" y="90" width="84.15" height="99" as="geometry" />
        </mxCell>
        <mxCell id="o6OlLVgvbYjxNVcpemtw-2" value="" style="verticalLabelPosition=bottom;sketch=0;aspect=fixed;html=1;verticalAlign=top;strokeColor=none;align=center;outlineConnect=0;shape=mxgraph.citrix.license_server;" vertex="1" parent="1">
          <mxGeometry x="270" y="60" width="98.65" height="129" as="geometry" />
        </mxCell>
        <mxCell id="o6OlLVgvbYjxNVcpemtw-3" value="Сервис регистрации и Аутентификации&lt;br&gt;" style="text;html=1;strokeColor=none;fillColor=none;align=center;verticalAlign=middle;whiteSpace=wrap;rounded=0;" vertex="1" parent="1">
          <mxGeometry x="270" y="210" width="101" height="30" as="geometry" />
        </mxCell>
        <mxCell id="o6OlLVgvbYjxNVcpemtw-4" value="База данных сервиса регистрации&lt;br&gt;" style="text;html=1;strokeColor=none;fillColor=none;align=center;verticalAlign=middle;whiteSpace=wrap;rounded=0;" vertex="1" parent="1">
          <mxGeometry x="400" y="210" width="60" height="30" as="geometry" />
        </mxCell>
        <mxCell id="o6OlLVgvbYjxNVcpemtw-6" value="" style="verticalLabelPosition=bottom;sketch=0;aspect=fixed;html=1;verticalAlign=top;strokeColor=none;align=center;outlineConnect=0;shape=mxgraph.citrix.database;" vertex="1" parent="1">
          <mxGeometry x="690" y="275" width="84.15" height="99" as="geometry" />
        </mxCell>
        <mxCell id="o6OlLVgvbYjxNVcpemtw-7" value="" style="verticalLabelPosition=bottom;sketch=0;aspect=fixed;html=1;verticalAlign=top;strokeColor=none;align=center;outlineConnect=0;shape=mxgraph.citrix.license_server;" vertex="1" parent="1">
          <mxGeometry x="580" y="245" width="98.65" height="129" as="geometry" />
        </mxCell>
        <mxCell id="o6OlLVgvbYjxNVcpemtw-8" value="Сервис информации о турнирах" style="text;html=1;strokeColor=none;fillColor=none;align=center;verticalAlign=middle;whiteSpace=wrap;rounded=0;" vertex="1" parent="1">
          <mxGeometry x="580" y="395" width="101" height="30" as="geometry" />
        </mxCell>
        <mxCell id="o6OlLVgvbYjxNVcpemtw-9" value="База данных сервиса информации о турнирах" style="text;html=1;strokeColor=none;fillColor=none;align=center;verticalAlign=middle;whiteSpace=wrap;rounded=0;" vertex="1" parent="1">
          <mxGeometry x="710" y="395" width="60" height="30" as="geometry" />
        </mxCell>
        <mxCell id="o6OlLVgvbYjxNVcpemtw-10" value="" style="verticalLabelPosition=bottom;sketch=0;aspect=fixed;html=1;verticalAlign=top;strokeColor=none;align=center;outlineConnect=0;shape=mxgraph.citrix.database;" vertex="1" parent="1">
          <mxGeometry x="642.25" y="590" width="84.15" height="99" as="geometry" />
        </mxCell>
        <mxCell id="o6OlLVgvbYjxNVcpemtw-11" value="" style="verticalLabelPosition=bottom;sketch=0;aspect=fixed;html=1;verticalAlign=top;strokeColor=none;align=center;outlineConnect=0;shape=mxgraph.citrix.license_server;" vertex="1" parent="1">
          <mxGeometry x="532.25" y="560" width="98.65" height="129" as="geometry" />
        </mxCell>
        <mxCell id="o6OlLVgvbYjxNVcpemtw-12" value="Сервис уведомлений" style="text;html=1;strokeColor=none;fillColor=none;align=center;verticalAlign=middle;whiteSpace=wrap;rounded=0;" vertex="1" parent="1">
          <mxGeometry x="532.25" y="710" width="101" height="30" as="geometry" />
        </mxCell>
        <mxCell id="o6OlLVgvbYjxNVcpemtw-13" value="База данных сервиса уведомлений&lt;br&gt;" style="text;html=1;strokeColor=none;fillColor=none;align=center;verticalAlign=middle;whiteSpace=wrap;rounded=0;" vertex="1" parent="1">
          <mxGeometry x="662.25" y="710" width="60" height="30" as="geometry" />
        </mxCell>
        <mxCell id="o6OlLVgvbYjxNVcpemtw-14" value="" style="shape=actor;whiteSpace=wrap;html=1;" vertex="1" parent="1">
          <mxGeometry x="-40" y="90" width="60" height="90" as="geometry" />
        </mxCell>
        <mxCell id="o6OlLVgvbYjxNVcpemtw-15" value="" style="endArrow=classic;html=1;rounded=0;exitX=0.833;exitY=0.111;exitDx=0;exitDy=0;exitPerimeter=0;" edge="1" parent="1" source="o6OlLVgvbYjxNVcpemtw-14">
          <mxGeometry width="50" height="50" relative="1" as="geometry">
            <mxPoint x="80" y="100.4" as="sourcePoint" />
            <mxPoint x="270" y="100.00305024548211" as="targetPoint" />
          </mxGeometry>
        </mxCell>
        <mxCell id="o6OlLVgvbYjxNVcpemtw-17" value="" style="endArrow=none;dashed=1;html=1;dashPattern=1 3;strokeWidth=2;rounded=0;" edge="1" parent="1">
          <mxGeometry width="50" height="50" relative="1" as="geometry">
            <mxPoint x="110" y="930" as="sourcePoint" />
            <mxPoint x="110" y="40" as="targetPoint" />
          </mxGeometry>
        </mxCell>
        <mxCell id="o6OlLVgvbYjxNVcpemtw-19" value="До аутентификации" style="text;html=1;strokeColor=none;fillColor=none;align=center;verticalAlign=middle;whiteSpace=wrap;rounded=0;" vertex="1" parent="1">
          <mxGeometry x="10" y="10" width="60" height="30" as="geometry" />
        </mxCell>
        <mxCell id="o6OlLVgvbYjxNVcpemtw-20" value="Пройти регистрацию" style="text;html=1;strokeColor=none;fillColor=none;align=center;verticalAlign=middle;whiteSpace=wrap;rounded=0;" vertex="1" parent="1">
          <mxGeometry x="40" y="60" width="60" height="30" as="geometry" />
        </mxCell>
        <mxCell id="o6OlLVgvbYjxNVcpemtw-22" value="" style="endArrow=classic;html=1;rounded=0;exitX=1.017;exitY=0.678;exitDx=0;exitDy=0;exitPerimeter=0;" edge="1" parent="1" source="o6OlLVgvbYjxNVcpemtw-14">
          <mxGeometry width="50" height="50" relative="1" as="geometry">
            <mxPoint x="80" y="150" as="sourcePoint" />
            <mxPoint x="270" y="150" as="targetPoint" />
            <Array as="points">
              <mxPoint x="170" y="150" />
            </Array>
          </mxGeometry>
        </mxCell>
        <mxCell id="o6OlLVgvbYjxNVcpemtw-23" value="Запросить смену пароля&lt;br&gt;" style="text;html=1;strokeColor=none;fillColor=none;align=center;verticalAlign=middle;whiteSpace=wrap;rounded=0;" vertex="1" parent="1">
          <mxGeometry x="40" y="109.5" width="60" height="30" as="geometry" />
        </mxCell>
        <mxCell id="o6OlLVgvbYjxNVcpemtw-24" value="" style="shape=actor;whiteSpace=wrap;html=1;" vertex="1" parent="1">
          <mxGeometry x="-70" y="219.5" width="60" height="90" as="geometry" />
        </mxCell>
        <mxCell id="o6OlLVgvbYjxNVcpemtw-25" value="" style="endArrow=classic;html=1;rounded=0;" edge="1" parent="1">
          <mxGeometry width="50" height="50" relative="1" as="geometry">
            <mxPoint x="10" y="264" as="sourcePoint" />
            <mxPoint x="580" y="264" as="targetPoint" />
          </mxGeometry>
        </mxCell>
        <mxCell id="o6OlLVgvbYjxNVcpemtw-27" value="Посмотреть турнирные&amp;nbsp; таблицы&lt;br&gt;" style="text;html=1;strokeColor=none;fillColor=none;align=center;verticalAlign=middle;whiteSpace=wrap;rounded=0;" vertex="1" parent="1">
          <mxGeometry x="10" y="230" width="60" height="30" as="geometry" />
        </mxCell>
        <mxCell id="o6OlLVgvbYjxNVcpemtw-28" value="После аутентификации" style="text;html=1;strokeColor=none;fillColor=none;align=center;verticalAlign=middle;whiteSpace=wrap;rounded=0;" vertex="1" parent="1">
          <mxGeometry x="140" y="10" width="60" height="30" as="geometry" />
        </mxCell>
        <mxCell id="o6OlLVgvbYjxNVcpemtw-29" value="" style="shape=actor;whiteSpace=wrap;html=1;" vertex="1" parent="1">
          <mxGeometry x="120" y="160" width="40" height="60" as="geometry" />
        </mxCell>
        <mxCell id="o6OlLVgvbYjxNVcpemtw-30" value="" style="endArrow=classic;html=1;rounded=0;entryX=0;entryY=0;entryDx=0;entryDy=0;" edge="1" parent="1">
          <mxGeometry width="50" height="50" relative="1" as="geometry">
            <mxPoint x="170" y="200" as="sourcePoint" />
            <mxPoint x="270" y="200" as="targetPoint" />
          </mxGeometry>
        </mxCell>
        <mxCell id="o6OlLVgvbYjxNVcpemtw-31" value="Посмотреть личную информацию" style="text;html=1;strokeColor=none;fillColor=none;align=center;verticalAlign=middle;whiteSpace=wrap;rounded=0;" vertex="1" parent="1">
          <mxGeometry x="180" y="159" width="60" height="30" as="geometry" />
        </mxCell>
        <mxCell id="o6OlLVgvbYjxNVcpemtw-32" value="" style="shape=actor;whiteSpace=wrap;html=1;" vertex="1" parent="1">
          <mxGeometry x="120" y="275" width="40" height="60" as="geometry" />
        </mxCell>
        <mxCell id="o6OlLVgvbYjxNVcpemtw-33" value="" style="endArrow=classic;html=1;rounded=0;" edge="1" parent="1">
          <mxGeometry width="50" height="50" relative="1" as="geometry">
            <mxPoint x="180" y="330" as="sourcePoint" />
            <mxPoint x="570" y="330" as="targetPoint" />
          </mxGeometry>
        </mxCell>
        <mxCell id="o6OlLVgvbYjxNVcpemtw-34" value="Зарегистрироваться на турнир" style="text;html=1;strokeColor=none;fillColor=none;align=center;verticalAlign=middle;whiteSpace=wrap;rounded=0;" vertex="1" parent="1">
          <mxGeometry x="220" y="300" width="60" height="30" as="geometry" />
        </mxCell>
        <mxCell id="o6OlLVgvbYjxNVcpemtw-35" value="" style="endArrow=classic;html=1;rounded=0;" edge="1" parent="1">
          <mxGeometry width="50" height="50" relative="1" as="geometry">
            <mxPoint x="190" y="300" as="sourcePoint" />
            <mxPoint x="570" y="300" as="targetPoint" />
          </mxGeometry>
        </mxCell>
        <mxCell id="o6OlLVgvbYjxNVcpemtw-36" value="Посмотреть рейтинг" style="text;html=1;strokeColor=none;fillColor=none;align=center;verticalAlign=middle;whiteSpace=wrap;rounded=0;" vertex="1" parent="1">
          <mxGeometry x="200" y="270" width="60" height="30" as="geometry" />
        </mxCell>
        <mxCell id="o6OlLVgvbYjxNVcpemtw-37" value="" style="shape=actor;whiteSpace=wrap;html=1;" vertex="1" parent="1">
          <mxGeometry x="130" y="580" width="40" height="60" as="geometry" />
        </mxCell>
        <mxCell id="o6OlLVgvbYjxNVcpemtw-39" value="" style="endArrow=classic;html=1;rounded=0;" edge="1" parent="1">
          <mxGeometry width="50" height="50" relative="1" as="geometry">
            <mxPoint x="532.25" y="590" as="sourcePoint" />
            <mxPoint x="212.25" y="590" as="targetPoint" />
          </mxGeometry>
        </mxCell>
        <mxCell id="o6OlLVgvbYjxNVcpemtw-44" style="edgeStyle=orthogonalEdgeStyle;rounded=0;orthogonalLoop=1;jettySize=auto;html=1;exitX=0.5;exitY=0;exitDx=0;exitDy=0;" edge="1" parent="1" source="o6OlLVgvbYjxNVcpemtw-40">
          <mxGeometry relative="1" as="geometry">
            <mxPoint x="339" y="560" as="targetPoint" />
          </mxGeometry>
        </mxCell>
        <mxCell id="o6OlLVgvbYjxNVcpemtw-40" value="Получить уведомление о турнире&lt;br&gt;" style="text;html=1;strokeColor=none;fillColor=none;align=center;verticalAlign=middle;whiteSpace=wrap;rounded=0;" vertex="1" parent="1">
          <mxGeometry x="308.65" y="550" width="60" height="30" as="geometry" />
        </mxCell>
        <mxCell id="o6OlLVgvbYjxNVcpemtw-41" value="" style="endArrow=classic;html=1;rounded=0;" edge="1" parent="1">
          <mxGeometry width="50" height="50" relative="1" as="geometry">
            <mxPoint x="210" y="650" as="sourcePoint" />
            <mxPoint x="530" y="650" as="targetPoint" />
          </mxGeometry>
        </mxCell>
        <mxCell id="o6OlLVgvbYjxNVcpemtw-43" value="Изменить подписку на уведомления" style="text;html=1;strokeColor=none;fillColor=none;align=center;verticalAlign=middle;whiteSpace=wrap;rounded=0;" vertex="1" parent="1">
          <mxGeometry x="308.65" y="609.5" width="60" height="30" as="geometry" />
        </mxCell>
        <mxCell id="o6OlLVgvbYjxNVcpemtw-45" value="" style="endArrow=classic;startArrow=classic;html=1;rounded=0;" edge="1" parent="1">
          <mxGeometry width="50" height="50" relative="1" as="geometry">
            <mxPoint x="475" y="120" as="sourcePoint" />
            <mxPoint x="625" y="230" as="targetPoint" />
          </mxGeometry>
        </mxCell>
        <mxCell id="o6OlLVgvbYjxNVcpemtw-46" value="Text" style="text;html=1;strokeColor=none;fillColor=none;align=center;verticalAlign=middle;whiteSpace=wrap;rounded=0;" vertex="1" parent="1">
          <mxGeometry x="220" y="420" width="60" height="30" as="geometry" />
        </mxCell>
        <mxCell id="o6OlLVgvbYjxNVcpemtw-47" value="Проверка правильности токена" style="text;html=1;strokeColor=none;fillColor=none;align=center;verticalAlign=middle;whiteSpace=wrap;rounded=0;" vertex="1" parent="1">
          <mxGeometry x="590" y="120" width="60" height="30" as="geometry" />
        </mxCell>
        <mxCell id="o6OlLVgvbYjxNVcpemtw-48" value="" style="verticalLabelPosition=bottom;sketch=0;aspect=fixed;html=1;verticalAlign=top;strokeColor=none;align=center;outlineConnect=0;shape=mxgraph.citrix.database;" vertex="1" parent="1">
          <mxGeometry x="481" y="780" width="84.15" height="99" as="geometry" />
        </mxCell>
        <mxCell id="o6OlLVgvbYjxNVcpemtw-49" value="" style="verticalLabelPosition=bottom;sketch=0;aspect=fixed;html=1;verticalAlign=top;strokeColor=none;align=center;outlineConnect=0;shape=mxgraph.citrix.license_server;" vertex="1" parent="1">
          <mxGeometry x="371" y="750" width="98.65" height="129" as="geometry" />
        </mxCell>
        <mxCell id="o6OlLVgvbYjxNVcpemtw-50" value="Сервис рейтинга" style="text;html=1;strokeColor=none;fillColor=none;align=center;verticalAlign=middle;whiteSpace=wrap;rounded=0;" vertex="1" parent="1">
          <mxGeometry x="371" y="900" width="101" height="30" as="geometry" />
        </mxCell>
        <mxCell id="o6OlLVgvbYjxNVcpemtw-51" value="База данных сервиса рейтинга" style="text;html=1;strokeColor=none;fillColor=none;align=center;verticalAlign=middle;whiteSpace=wrap;rounded=0;" vertex="1" parent="1">
          <mxGeometry x="501" y="900" width="60" height="30" as="geometry" />
        </mxCell>
        <mxCell id="o6OlLVgvbYjxNVcpemtw-52" value="" style="endArrow=classic;startArrow=classic;html=1;rounded=0;" edge="1" parent="1" target="o6OlLVgvbYjxNVcpemtw-11">
          <mxGeometry width="50" height="50" relative="1" as="geometry">
            <mxPoint x="460" y="190" as="sourcePoint" />
            <mxPoint x="580" y="530" as="targetPoint" />
          </mxGeometry>
        </mxCell>
        <mxCell id="o6OlLVgvbYjxNVcpemtw-53" value="Проверка правильности токена" style="text;html=1;strokeColor=none;fillColor=none;align=center;verticalAlign=middle;whiteSpace=wrap;rounded=0;" vertex="1" parent="1">
          <mxGeometry x="565.15" y="470" width="60" height="30" as="geometry" />
        </mxCell>
        <mxCell id="o6OlLVgvbYjxNVcpemtw-54" value="" style="endArrow=classic;startArrow=classic;html=1;rounded=0;" edge="1" parent="1" source="o6OlLVgvbYjxNVcpemtw-2">
          <mxGeometry width="50" height="50" relative="1" as="geometry">
            <mxPoint x="397" y="210" as="sourcePoint" />
            <mxPoint x="470" y="750" as="targetPoint" />
          </mxGeometry>
        </mxCell>
        <mxCell id="o6OlLVgvbYjxNVcpemtw-55" value="Проверка правильности токена" style="text;html=1;strokeColor=none;fillColor=none;align=center;verticalAlign=middle;whiteSpace=wrap;rounded=0;" vertex="1" parent="1">
          <mxGeometry x="404.15" y="440" width="60" height="30" as="geometry" />
        </mxCell>
        <mxCell id="o6OlLVgvbYjxNVcpemtw-56" value="" style="shape=actor;whiteSpace=wrap;html=1;" vertex="1" parent="1">
          <mxGeometry x="-100" y="740" width="60" height="90" as="geometry" />
        </mxCell>
        <mxCell id="o6OlLVgvbYjxNVcpemtw-57" value="" style="endArrow=classic;html=1;rounded=0;" edge="1" parent="1">
          <mxGeometry width="50" height="50" relative="1" as="geometry">
            <mxPoint x="-30" y="785" as="sourcePoint" />
            <mxPoint x="365" y="784.5" as="targetPoint" />
          </mxGeometry>
        </mxCell>
        <mxCell id="o6OlLVgvbYjxNVcpemtw-58" value="Посмотреть общий рейтинг&lt;br&gt;" style="text;html=1;strokeColor=none;fillColor=none;align=center;verticalAlign=middle;whiteSpace=wrap;rounded=0;" vertex="1" parent="1">
          <mxGeometry x="10" y="740" width="60" height="30" as="geometry" />
        </mxCell>
        <mxCell id="o6OlLVgvbYjxNVcpemtw-59" value="" style="shape=actor;whiteSpace=wrap;html=1;" vertex="1" parent="1">
          <mxGeometry x="120" y="810" width="40" height="60" as="geometry" />
        </mxCell>
        <mxCell id="o6OlLVgvbYjxNVcpemtw-60" value="" style="endArrow=classic;html=1;rounded=0;" edge="1" parent="1">
          <mxGeometry width="50" height="50" relative="1" as="geometry">
            <mxPoint x="161" y="859.75" as="sourcePoint" />
            <mxPoint x="370" y="860" as="targetPoint" />
          </mxGeometry>
        </mxCell>
        <mxCell id="o6OlLVgvbYjxNVcpemtw-61" value="Посмотреть персональный рейтинг&lt;br&gt;" style="text;html=1;strokeColor=none;fillColor=none;align=center;verticalAlign=middle;whiteSpace=wrap;rounded=0;" vertex="1" parent="1">
          <mxGeometry x="259.65" y="819.25" width="60" height="30" as="geometry" />
        </mxCell>
        <mxCell id="o6OlLVgvbYjxNVcpemtw-63" value="Передать иформацию о турнире и его подписчиках&amp;nbsp;" style="text;html=1;strokeColor=none;fillColor=none;align=center;verticalAlign=middle;whiteSpace=wrap;rounded=0;" vertex="1" parent="1">
          <mxGeometry x="681" y="490" width="60" height="30" as="geometry" />
        </mxCell>
        <mxCell id="o6OlLVgvbYjxNVcpemtw-64" value="" style="endArrow=classic;html=1;rounded=0;" edge="1" parent="1">
          <mxGeometry width="50" height="50" relative="1" as="geometry">
            <mxPoint x="681" y="365" as="sourcePoint" />
            <mxPoint x="640" y="570" as="targetPoint" />
            <Array as="points" />
          </mxGeometry>
        </mxCell>
      </root>
    </mxGraphModel>
  </diagram>
</mxfile>
